<svg width="11" height="12" viewBox="0 0 11 12" fill="none" xmlns="http://www.w3.org/2000/svg">
<path fill-rule="evenodd" clip-rule="evenodd" d="M0.803176 0.7032C0.0999755 1.4058 0.0999756 2.5374 0.0999756 4.8V7.2C0.0999756 9.4626 0.0999755 10.5942 0.803176 11.2968C1.50638 11.9994 2.63738 12 4.89998 12H6.09998C8.36258 12 9.49417 12 10.1968 11.2968C10.8994 10.5936 10.9 9.4626 10.9 7.2V4.8C10.9 2.5374 10.9 1.4058 10.1968 0.7032C9.49357 0.000599957 8.36258 0 6.09998 0H4.89998C2.63738 0 1.50578 -7.15256e-08 0.803176 0.7032ZM3.09998 4.35C2.98063 4.35 2.86617 4.39741 2.78178 4.4818C2.69739 4.56619 2.64998 4.68065 2.64998 4.8C2.64998 4.91935 2.69739 5.03381 2.78178 5.1182C2.86617 5.20259 2.98063 5.25 3.09998 5.25H7.89998C8.01932 5.25 8.13378 5.20259 8.21817 5.1182C8.30256 5.03381 8.34998 4.91935 8.34998 4.8C8.34998 4.68065 8.30256 4.56619 8.21817 4.4818C8.13378 4.39741 8.01932 4.35 7.89998 4.35H3.09998ZM3.09998 6.75C2.98063 6.75 2.86617 6.79741 2.78178 6.8818C2.69739 6.96619 2.64998 7.08065 2.64998 7.2C2.64998 7.31935 2.69739 7.43381 2.78178 7.5182C2.86617 7.60259 2.98063 7.65 3.09998 7.65H6.09998C6.21932 7.65 6.33378 7.60259 6.41817 7.5182C6.50256 7.43381 6.54998 7.31935 6.54998 7.2C6.54998 7.08065 6.50256 6.96619 6.41817 6.8818C6.33378 6.79741 6.21932 6.75 6.09998 6.75H3.09998Z" fill="white"/>
</svg>
