<svg width="15" height="12" viewBox="0 0 15 12" fill="none" xmlns="http://www.w3.org/2000/svg">
<path d="M14.1123 4.89796H13.2851L11.0866 2.7C11.0072 2.62021 10.9129 2.55694 10.8089 2.51385C10.705 2.47077 10.5936 2.44872 10.481 2.44898H7.86737V0.734694H9.45921C9.55664 0.734694 9.65007 0.695991 9.71896 0.6271C9.78785 0.558209 9.82656 0.464773 9.82656 0.367347C9.82656 0.26992 9.78785 0.176484 9.71896 0.107593C9.65007 0.0387025 9.55664 0 9.45921 0H5.54084C5.44342 0 5.34998 0.0387025 5.28109 0.107593C5.2122 0.176484 5.1735 0.26992 5.1735 0.367347C5.1735 0.464773 5.2122 0.558209 5.28109 0.6271C5.34998 0.695991 5.44342 0.734694 5.54084 0.734694H7.13268V2.44898H3.33676C3.10943 2.44898 2.89142 2.53928 2.73067 2.70003C2.56992 2.86078 2.47962 3.07879 2.47962 3.30612V6.61224H0.765333V5.02041C0.765333 4.92298 0.726631 4.82954 0.65774 4.76065C0.588849 4.69176 0.495413 4.65306 0.397987 4.65306C0.30056 4.65306 0.207124 4.69176 0.138233 4.76065C0.0693422 4.82954 0.0306396 4.92298 0.0306396 5.02041V8.93877C0.0306396 9.0362 0.0693422 9.12964 0.138233 9.19853C0.207124 9.26742 0.30056 9.30612 0.397987 9.30612C0.495413 9.30612 0.588849 9.26742 0.65774 9.19853C0.726631 9.12964 0.765333 9.0362 0.765333 8.93877V7.34694H2.47962V8.73612C2.47936 8.84863 2.50141 8.96008 2.54449 9.06401C2.58758 9.16795 2.65085 9.26231 2.73064 9.34163L5.13799 11.749C5.21731 11.8288 5.31167 11.892 5.4156 11.9351C5.51954 11.9782 5.63098 12.0003 5.7435 12H10.481C10.5936 12.0003 10.705 11.9782 10.8089 11.9351C10.9129 11.892 11.0072 11.8288 11.0866 11.749L13.2851 9.55102H14.1123C14.3396 9.55102 14.5576 9.46071 14.7184 9.29997C14.8791 9.13922 14.9694 8.9212 14.9694 8.69388V5.7551C14.9694 5.52777 14.8791 5.30975 14.7184 5.14901C14.5576 4.98826 14.3396 4.89796 14.1123 4.89796ZM14.2347 8.69388C14.2347 8.72635 14.2218 8.7575 14.1989 8.78046C14.1759 8.80342 14.1447 8.81633 14.1123 8.81633H13.1327C13.0353 8.81641 12.9419 8.85517 12.8731 8.92408L10.5674 11.2298C10.5444 11.2526 10.5134 11.2653 10.481 11.2653H5.7435C5.71116 11.2653 5.68013 11.2526 5.65717 11.2298L3.24982 8.82245C3.22705 8.79949 3.21429 8.76846 3.21431 8.73612V3.30612C3.21431 3.27365 3.22721 3.2425 3.25018 3.21954C3.27314 3.19657 3.30429 3.18367 3.33676 3.18367H10.481C10.5134 3.18365 10.5444 3.19641 10.5674 3.21918L12.8731 5.5249C12.9419 5.59381 13.0353 5.63257 13.1327 5.63265H14.1123C14.1447 5.63265 14.1759 5.64555 14.1989 5.66852C14.2218 5.69148 14.2347 5.72263 14.2347 5.7551V8.69388Z" fill="#ABABAB"/>
</svg>
