<svg width="18" height="18" viewBox="0 0 18 18" fill="none" xmlns="http://www.w3.org/2000/svg">
<path d="M14.6 1H3.4C2.2688 1 1.7032 1 1.352 1.36623C1.0008 1.73245 1 2.32268 1 3.50225V4.11559C1 5.03738 1 5.49872 1.208 5.88094C1.416 6.26317 1.7944 6.50139 2.5536 6.97606L4.884 8.43386C5.3928 8.75208 5.648 8.9112 5.8304 9.0872C6.2096 9.45254 6.4432 9.88276 6.5488 10.4117C6.6 10.6641 6.6 10.961 6.6 11.5539V13.9273C6.6 14.7353 6.6 15.1397 6.8016 15.4544C7.0032 15.7699 7.3616 15.9255 8.0768 16.2366C9.58 16.8891 10.3312 17.2153 10.8656 16.8437C11.4 16.4722 11.4 15.6242 11.4 13.9264V11.553C11.4 10.961 11.4 10.6641 11.4512 10.4108C11.5517 9.89268 11.8047 9.42662 12.1704 9.08631C12.352 8.9112 12.6072 8.75209 13.116 8.43297L15.4464 6.97518C16.2048 6.50139 16.5848 6.26406 16.792 5.88183C17 5.4996 17 5.03738 17 4.1147V3.50136C17 2.32268 17 1.73245 16.648 1.36623C16.2976 1 15.732 1 14.6 1Z" stroke="#ABABAB"/>
</svg>
