<svg width="13" height="12" viewBox="0 0 13 12" fill="none" xmlns="http://www.w3.org/2000/svg">
<path d="M5.60089 6.5926L4.7854 7.66638C4.76521 7.69286 4.75207 7.72414 4.74722 7.75724C4.74238 7.79034 4.746 7.82414 4.75774 7.85541C4.76948 7.88669 4.78894 7.91439 4.81427 7.93587C4.8396 7.95734 4.86994 7.97188 4.9024 7.97808L5.75709 8.16178C5.7913 8.16829 5.82313 8.18405 5.84923 8.20739C5.87532 8.23073 5.8947 8.26078 5.90531 8.29436C5.91592 8.32795 5.91737 8.36381 5.9095 8.39816C5.90164 8.43251 5.88475 8.46406 5.86063 8.48949L4.84858 9.55556M1.82004 4.81482H8.84004" stroke="#ABABAB" stroke-linecap="round" stroke-linejoin="round"/>
<path d="M0.649994 11.3333H10.01M8.83999 7.18517H9.81519C9.99654 7.18517 10.0872 7.18517 10.1615 7.20532C10.2607 7.23225 10.3511 7.28514 10.4237 7.35868C10.4963 7.43223 10.5485 7.52383 10.5751 7.62429C10.595 7.69954 10.595 7.7914 10.595 7.9751V8.66666C10.595 8.9024 10.6874 9.1285 10.852 9.29519C11.0166 9.46189 11.2398 9.55554 11.4725 9.55554C11.7052 9.55554 11.9284 9.46189 12.093 9.29519C12.2575 9.1285 12.35 8.9024 12.35 8.66666V4.93984C12.35 4.58369 12.35 4.40532 12.2997 4.23762C12.2494 4.06992 12.1523 3.92117 11.9569 3.62488L11.5047 2.93747C11.4048 2.78583 11.2695 2.6615 11.1108 2.5755C10.9521 2.4895 10.775 2.44448 10.595 2.44443M1.81999 11.3333V4.22221C1.81999 2.54636 1.81999 1.70784 2.33421 1.18755C2.84784 0.666656 3.67561 0.666656 5.32999 0.666656C6.98437 0.666656 7.81215 0.666656 8.32578 1.18755C8.83999 1.70784 8.83999 2.54636 8.83999 4.22221V11.3333H1.81999Z" stroke="#ABABAB" stroke-linecap="round" stroke-linejoin="round"/>
</svg>
