<svg width="16" height="16" viewBox="0 0 16 16" fill="none" xmlns="http://www.w3.org/2000/svg">
<path d="M0 14.1714V5.94286C0 5.65333 0.0709998 5.37905 0.213 5.12C0.355 4.86095 0.550667 4.64762 0.8 4.48L6.8 0.365714C7.15 0.121905 7.55 0 8 0C8.45 0 8.85 0.121905 9.2 0.365714L15.2 4.48C15.45 4.64762 15.646 4.86095 15.788 5.12C15.93 5.37905 16.0007 5.65333 16 5.94286V14.1714C16 14.6743 15.804 15.1049 15.412 15.4633C15.02 15.8217 14.5493 16.0006 14 16H11C10.7167 16 10.4793 15.9122 10.288 15.7367C10.0967 15.5611 10.0007 15.3441 10 15.0857V10.5143C10 10.2552 9.904 10.0382 9.712 9.86331C9.52 9.68838 9.28266 9.60061 9 9.6H7C6.71667 9.6 6.47933 9.68777 6.288 9.86331C6.09667 10.0389 6.00067 10.2558 6 10.5143V15.0857C6 15.3448 5.904 15.5621 5.712 15.7376C5.52 15.9131 5.28267 16.0006 5 16H2C1.45 16 0.979333 15.8211 0.588 15.4633C0.196666 15.1055 0.000666667 14.6749 0 14.1714Z" fill="#181D3D"/>
</svg>
