<svg width="12" height="12" viewBox="0 0 12 12" fill="none" xmlns="http://www.w3.org/2000/svg">
<path fill-rule="evenodd" clip-rule="evenodd" d="M3.82401 0C5.93593 0 7.64801 1.71208 7.64801 3.82401C7.64801 4.21032 7.59071 4.58325 7.48418 4.93479L11.472 8.92269C12.176 9.62667 12.176 10.768 11.472 11.472C10.768 12.176 9.62664 12.176 8.92269 11.472L4.93479 7.48418C4.58325 7.59071 4.21032 7.64801 3.82401 7.64801C1.71208 7.64801 0 5.93593 0 3.82401C0 3.41645 0.0637534 3.02377 0.181849 2.65544L1.99072 4.46133L3.78364 3.86422L3.86371 3.78415L4.46133 1.9929L2.65036 0.183522C3.02016 0.0643808 3.41457 0 3.82401 0Z" fill="white"/>
</svg>
