<svg width="13" height="12" viewBox="0 0 13 12" fill="none" xmlns="http://www.w3.org/2000/svg">
<path d="M7.32351 4.35289C7.32351 4.46923 7.28901 4.58296 7.22437 4.67969C7.15974 4.77643 7.06787 4.85182 6.96038 4.89634C6.8529 4.94087 6.73462 4.95252 6.62052 4.92982C6.50641 4.90712 6.4016 4.8511 6.31934 4.76883C6.23707 4.68657 6.18105 4.58176 6.15835 4.46765C6.13565 4.35355 6.1473 4.23527 6.19183 4.12779C6.23635 4.0203 6.31174 3.92843 6.40847 3.8638C6.50521 3.79916 6.61894 3.76466 6.73528 3.76466C6.89129 3.76466 7.0409 3.82664 7.15122 3.93695C7.26153 4.04727 7.32351 4.19688 7.32351 4.35289ZM12.9705 6.08523C12.9445 7.63958 12.3178 9.12354 11.2219 10.2261C10.126 11.3287 8.64592 11.9644 7.09174 11.9999H6.96645C5.49478 12.0098 4.07149 11.4748 2.97061 10.4981C2.93485 10.4676 2.90556 10.4302 2.88445 10.3882C2.86334 10.3461 2.85085 10.3003 2.8477 10.2534C2.84455 10.2064 2.85082 10.1594 2.86613 10.1149C2.88143 10.0704 2.90548 10.0295 2.93684 9.9944C2.9682 9.95936 3.00625 9.93093 3.04876 9.9108C3.09126 9.89066 3.13737 9.87923 3.18435 9.87716C3.23134 9.8751 3.27827 9.88244 3.32237 9.89877C3.36648 9.9151 3.40688 9.94008 3.4412 9.97224C3.82887 10.3187 4.26702 10.6041 4.74059 10.8187L6.44646 8.47226C5.03883 7.80344 3.49473 8.06462 2.63473 8.2105C2.30944 8.26732 1.97471 8.23122 1.66901 8.10636C1.3633 7.9815 1.09902 7.77293 0.906519 7.50462C0.901903 7.49856 0.897584 7.49228 0.893578 7.4858L0.0824105 6.19169C0.0577532 6.15219 0.0411566 6.1082 0.0335768 6.06226C0.025997 6.01631 0.027584 5.96932 0.0382463 5.924C0.0489086 5.87867 0.0684354 5.8359 0.0957016 5.79815C0.122968 5.7604 0.157434 5.72842 0.197115 5.70405L6.14705 2.03821V0.352937C6.14705 0.259332 6.18423 0.169561 6.25042 0.103373C6.31661 0.0371843 6.40638 3.06347e-08 6.49999 3.06347e-08H6.97057C7.76572 -8.03178e-05 8.55296 0.157893 9.28652 0.464738C10.0201 0.771582 10.6853 1.22118 11.2436 1.78739C11.8019 2.3536 12.242 3.02513 12.5385 3.76295C12.835 4.50077 12.9818 5.29016 12.9705 6.08523ZM12.2646 6.07523C12.2746 5.37369 12.145 4.67717 11.8835 4.02615C11.6219 3.37513 11.2335 2.78259 10.7409 2.28299C10.2483 1.78339 9.66132 1.38669 9.01406 1.11594C8.3668 0.845193 7.67218 0.705804 6.97057 0.705874H6.85292V2.23527C6.8529 2.29557 6.83742 2.35486 6.80797 2.40748C6.77852 2.4601 6.73607 2.5043 6.68469 2.53585L0.870049 6.11405L1.48592 7.09874C1.60204 7.25732 1.76021 7.38024 1.94253 7.45363C2.12486 7.52702 2.32408 7.54794 2.51768 7.51403C3.44826 7.35698 5.36588 7.03286 7.06057 7.99756C7.69967 7.97426 8.30484 7.70404 8.74881 7.24373C9.19277 6.78342 9.44094 6.16888 9.44113 5.52935C9.44113 5.43575 9.47831 5.34597 9.5445 5.27979C9.61069 5.2136 9.70046 5.17641 9.79407 5.17641C9.88767 5.17641 9.97744 5.2136 10.0436 5.27979C10.1098 5.34597 10.147 5.43575 10.147 5.52935C10.146 6.33958 9.83579 7.11887 9.27968 7.70811C8.72356 8.29735 7.9635 8.65209 7.15468 8.6999L5.42764 11.0746C5.96319 11.2316 6.51965 11.3056 7.07763 11.294C8.44881 11.2623 9.75456 10.7013 10.7214 9.72851C11.6883 8.75572 12.2413 7.44658 12.2646 6.07523Z" fill="#ABABAB"/>
</svg>
