<svg width="16" height="16" viewBox="0 0 16 16" fill="none" xmlns="http://www.w3.org/2000/svg">
<path d="M0.808149 0L0 0.807596L1.42365 3.2679L2.34689 3.13259L7.98239 8.76485L7.50169 9.22616C7.25549 9.47219 7.25549 9.84492 7.50169 10.091L7.75158 10.3413C7.99778 10.5873 8.37447 10.5873 8.55912 10.3413L9.29033 11.0714C9.22878 11.4404 9.29033 11.879 9.59808 12.1865L12.9255 15.4926C13.6025 16.1691 14.7104 16.1691 15.3875 15.4926C16.1876 14.7545 16.1802 13.651 15.5032 12.9744L12.1949 9.64871C11.8871 9.34118 11.4483 9.21816 11.079 9.34118L10.2708 8.61108C10.4555 8.36505 10.4555 7.98862 10.2708 7.80348L10.04 7.57344C9.98405 7.51514 9.91687 7.46874 9.84251 7.43704C9.76816 7.40535 9.68815 7.38901 9.60731 7.38901C9.52647 7.38901 9.44646 7.40535 9.3721 7.43704C9.29774 7.46874 9.23057 7.51514 9.17461 7.57344L8.77085 7.97693L3.13535 2.34529L3.26953 1.42267L0.808149 0ZM12.8104 0.0190674C11.596 -0.0818053 9.98584 0.722716 9.23247 1.42206C8.30553 2.34836 8.45694 3.55945 9.19369 4.72871L7.88638 6.03575L8.80962 7.07339C9.30202 6.64283 10.0283 6.64283 10.5207 7.07339L10.7712 7.32311L10.8291 7.38093L11.3676 6.84273C12.4805 7.49656 13.6388 7.59067 14.5221 6.70803C15.3838 5.90843 16.3181 3.93649 15.8872 2.76785L14.1565 4.55526C13.9103 4.80129 13.5373 4.80129 13.2911 4.55526L11.5018 2.76785C11.4435 2.71193 11.397 2.6448 11.3653 2.57049C11.3336 2.49618 11.3172 2.41623 11.3172 2.33545C11.3172 2.25466 11.3336 2.17471 11.3653 2.1004C11.397 2.02609 11.4435 1.95896 11.5018 1.90305L13.2917 0.115634C13.1378 0.0615077 12.9839 0.0338292 12.8104 0.0190674ZM6.03988 7.68846L3.80809 9.91812C3.56823 9.86508 3.32314 9.83929 3.07749 9.84123C1.3541 9.84123 0 11.1944 0 12.9166C0 14.6388 1.3541 15.992 3.07749 15.992C4.80088 15.992 6.15498 14.6388 6.15498 12.9166C6.15498 12.6011 6.10512 12.2979 6.02019 12.0131L7.32812 10.706L7.13608 10.4563C6.64369 9.96425 6.64738 9.21878 7.07823 8.7261L6.03988 7.68846ZM10.81 10.4951C10.8869 10.4951 10.9596 10.5098 11.0211 10.5719L14.6569 14.2046C14.78 14.3276 14.78 14.5232 14.6569 14.6462C14.5338 14.7692 14.3368 14.7692 14.2137 14.6462L10.5792 11.0136C10.4561 10.8906 10.4561 10.695 10.5792 10.5719C10.6407 10.5104 10.7331 10.4951 10.81 10.4951ZM3.50095 11.3205L4.67409 12.4934L4.25063 14.0883L2.65464 14.5115L1.48089 13.3386L1.90435 11.7437L3.50095 11.3205Z" fill="#181D3D"/>
</svg>
