<svg width="13" height="14" viewBox="0 0 13 14" fill="none" xmlns="http://www.w3.org/2000/svg">
<path d="M7.15 9.72439C7.475 9.83489 7.735 10.0169 7.9495 10.2574H8.45V12.8574H7.9365C7.7285 13.0849 7.475 13.2669 7.15 13.3774C6.4025 13.6504 5.577 13.4229 5.057 12.8574H4.55V10.2574H5.0505C5.265 10.0169 5.525 9.83489 5.85 9.72439V7.00739H7.15V9.72439ZM6.5 12.2074C6.67239 12.2074 6.83772 12.1389 6.95962 12.017C7.08152 11.8951 7.15 11.7298 7.15 11.5574C7.15 11.385 7.08152 11.2197 6.95962 11.0978C6.83772 10.9759 6.67239 10.9074 6.5 10.9074C6.32761 10.9074 6.16228 10.9759 6.04038 11.0978C5.91848 11.2197 5.85 11.385 5.85 11.5574C5.85 11.7298 5.91848 11.8951 6.04038 12.017C6.16228 12.1389 6.32761 12.2074 6.5 12.2074ZM9.75 1.80739H8.45V2.45739H9.75V6.35739H3.25V2.45739H4.55V1.80739H3.25V0.507385H9.75V1.80739ZM6.5 5.05739C6.67239 5.05739 6.83772 4.9889 6.95962 4.867C7.08152 4.74511 7.15 4.57978 7.15 4.40739C7.15 4.23499 7.08152 4.06966 6.95962 3.94777C6.83772 3.82587 6.67239 3.75739 6.5 3.75739C6.32761 3.75739 6.16228 3.82587 6.04038 3.94777C5.91848 4.06966 5.85 4.23499 5.85 4.40739C5.85 4.57978 5.91848 4.74511 6.04038 4.867C6.16228 4.9889 6.32761 5.05739 6.5 5.05739Z" fill="#ABABAB"/>
</svg>
